<svg width="18" height="18" viewBox="0 0 18 18" fill="none" xmlns="http://www.w3.org/2000/svg">
<path fill-rule="evenodd" clip-rule="evenodd" d="M13.5 5.75V7.75H4.5V5.75H13.5ZM11.25 11.5H4.5V9.5H11.25V11.5ZM3.59286 13.546L2.77485 16H9C12.866 16 16 12.866 16 9C16 5.13401 12.866 2 9 2C5.13401 2 2 5.13401 2 9C2 10.3805 2.3976 11.6621 3.08376 12.7436L3.59286 13.546ZM9 18C13.9706 18 18 13.9706 18 9C18 4.02944 13.9706 0 9 0C4.02944 0 0 4.02944 0 9C0 10.7711 0.511564 12.4226 1.39499 13.815L0 18H9Z" fill="black"/>
</svg>
