<svg width="23" height="28" viewBox="0 0 23 28" fill="none" xmlns="http://www.w3.org/2000/svg">
<path fill-rule="evenodd" clip-rule="evenodd" d="M13.2485 26.4063L12.986 26.5734C11.9762 27.216 10.6453 27.2115 9.6336 26.4752C4.32172 22.6087 0 16.763 0 11.077C0 4.95933 4.95933 0 11.077 0C17.1946 0 22.1539 4.95933 22.1539 11.077C22.1539 16.3753 18.8394 20.3588 14.1495 22.0484L14.4379 22.7984C14.9504 24.1308 14.4529 25.6399 13.2485 26.4063ZM12.1747 24.719L11.9122 24.8861C11.5728 25.1021 11.1359 25.0949 10.8106 24.8581C5.72215 21.1544 2 15.831 2 11.077C2 6.0639 6.0639 2 11.077 2C16.09 2 20.1539 6.0639 20.1539 11.077C20.1539 15.6974 17.1164 19.161 12.6565 20.429C12.0563 20.5996 11.6958 21.2403 11.9198 21.8228L12.5712 23.5164C12.742 23.9605 12.5762 24.4635 12.1747 24.719ZM11.2145 12.1026C11.857 12.1026 12.3777 11.5818 12.3777 10.9394C12.3777 10.297 11.857 9.77624 11.2145 9.77624C10.5721 9.77624 10.0514 10.297 10.0514 10.9394C10.0514 11.5818 10.5721 12.1026 11.2145 12.1026ZM14.3777 10.9394C14.3777 12.6864 12.9615 14.1026 11.2145 14.1026C9.46757 14.1026 8.05136 12.6864 8.05136 10.9394C8.05136 9.19245 9.46757 7.77624 11.2145 7.77624C12.9615 7.77624 14.3777 9.19245 14.3777 10.9394Z" fill="black"/>
</svg>
