<svg width="60" height="60" viewBox="0 0 60 60" fill="none" xmlns="http://www.w3.org/2000/svg">
<circle cx="30" cy="30" r="29.5" stroke="#FFEF9B"/>
<path d="M12.4999 46.9811C12.628 47.0176 12.7641 46.9974 12.8786 46.9249C12.9932 46.8524 13.077 46.7335 13.1119 46.5939C14.1419 42.3906 18.3279 41.3012 20.8299 40.6493C21.4569 40.4864 21.9519 40.3573 22.2739 40.2053C25.1239 38.8523 26.0529 36.6757 26.3309 35.0876C26.3475 34.9931 26.3409 34.8955 26.312 34.8047C26.283 34.7139 26.2326 34.633 26.1659 34.5703C24.6819 33.1692 23.4299 31.0659 22.6399 28.6465C22.6177 28.5771 22.5826 28.5135 22.5369 28.4595C21.4919 27.217 20.8919 25.9034 20.8919 24.8567C20.8919 24.2453 21.1029 23.8351 21.5779 23.5256C21.6491 23.4791 21.7086 23.4139 21.751 23.336C21.7934 23.2581 21.8174 23.1699 21.8209 23.0793C22.0419 17.5078 25.6699 13.1218 30.1199 13.0934L30.2269 13.1011C34.6989 13.1689 38.3039 17.6489 38.4329 23.2992C38.4347 23.3764 38.4516 23.4523 38.4822 23.5219C38.5129 23.5915 38.5568 23.6532 38.6109 23.7028C38.9239 23.9926 39.0699 24.3601 39.0699 24.8589C39.0699 25.735 38.6429 26.8123 37.8689 27.8907C37.8321 27.9426 37.8036 28.0011 37.7849 28.0636C36.9849 30.8373 35.5489 33.2862 33.8469 34.7846C33.7764 34.8469 33.7227 34.9289 33.6913 35.0219C33.66 35.1149 33.6523 35.2155 33.6689 35.3129C33.9469 36.9 34.8759 39.0754 37.7259 40.4306C38.0629 40.5903 38.5859 40.715 39.2489 40.8714C41.7259 41.4576 45.8709 42.4409 46.8879 46.5939C46.905 46.6632 46.9344 46.7283 46.9745 46.7852C47.0145 46.8422 47.0644 46.8899 47.1213 46.9258C47.1783 46.9616 47.2411 46.9849 47.3062 46.9942C47.3713 47.0035 47.4375 46.9986 47.5009 46.98C47.5644 46.9613 47.6238 46.9291 47.6759 46.8853C47.728 46.8415 47.7716 46.7869 47.8044 46.7247C47.8372 46.6624 47.8584 46.5937 47.8669 46.5225C47.8754 46.4512 47.871 46.3789 47.8539 46.3095C46.6789 41.5112 41.9829 40.3989 39.4609 39.8017C38.8759 39.6628 38.3709 39.5436 38.1249 39.4254C36.2649 38.5417 35.1189 37.1953 34.7139 35.4168C36.4409 33.7948 37.8859 31.2923 38.7119 28.4857C39.5889 27.2389 40.0709 25.9548 40.0709 24.8578C40.0709 24.1261 39.8549 23.5157 39.4269 23.0389C39.1889 16.9095 35.1899 12.0828 30.2269 12.0051L30.0779 12.0029C25.2049 12.0314 21.1889 16.7312 20.8379 22.7545C20.2119 23.2576 19.8939 23.9631 19.8939 24.8589C19.8939 26.1528 20.5629 27.7004 21.7339 29.1201C22.5429 31.5515 23.7969 33.6876 25.2899 35.1828C24.8869 36.9678 23.7399 38.3186 21.8759 39.2034C21.6349 39.3182 21.1549 39.444 20.5989 39.5884C18.0579 40.249 13.3299 41.4795 12.1459 46.3117C12.1118 46.4518 12.1298 46.601 12.1962 46.7265C12.2626 46.8521 12.3719 46.9436 12.4999 46.9811Z" fill="#FFEF9B"/>
</svg>
