<svg width="20" height="20" viewBox="0 0 20 20" fill="none" xmlns="http://www.w3.org/2000/svg">
<path fill-rule="evenodd" clip-rule="evenodd" d="M11.2856 0.532533C10.9447 0.191558 10.4822 0 10 0C9.51779 0 9.05533 0.191558 8.71435 0.532533C8.37338 0.873508 8.18182 1.33597 8.18182 1.81818C8.18182 2.49091 8.54545 3.08182 9.09091 3.39091V4.54545H8.18182C6.49408 4.54545 4.87546 5.21591 3.68205 6.40932C2.48863 7.60273 1.81818 9.22135 1.81818 10.9091H0.909091C0.667985 10.9091 0.436754 11.0049 0.266267 11.1754C0.0957789 11.3458 0 11.5771 0 11.8182V14.5455C0 14.7866 0.0957789 15.0178 0.266267 15.1883C0.436754 15.3588 0.667985 15.4545 0.909091 15.4545H1.81818V18.1818C1.81818 18.664 2.00974 19.1265 2.35072 19.4675C2.69169 19.8084 3.15415 20 3.63636 20H16.3636C16.8458 20 17.3083 19.8084 17.6493 19.4675C17.9903 19.1265 18.1818 18.664 18.1818 18.1818V15.4545H19.0909C19.332 15.4545 19.5632 15.3588 19.7337 15.1883C19.9042 15.0178 20 14.7866 20 14.5455V11.8182C20 11.5771 19.9042 11.3458 19.7337 11.1754C19.5632 11.0049 19.332 10.9091 19.0909 10.9091H18.1818C18.1818 9.22135 17.5114 7.60273 16.318 6.40932C15.1245 5.21591 13.5059 4.54545 11.8182 4.54545H10.9091V3.39091C11.4545 3.08182 11.8182 2.49091 11.8182 1.81818C11.8182 1.33597 11.6266 0.873508 11.2856 0.532533ZM8.80885 16.7553C8.52307 16.66 8.21416 16.8145 8.1189 17.1002C8.02364 17.386 8.17809 17.6949 8.46388 17.7902L8.79259 17.8998C9.57633 18.161 10.4237 18.161 11.2074 17.8998L11.5361 17.7902C11.8219 17.6949 11.9764 17.386 11.8811 17.1002C11.7858 16.8145 11.4769 16.66 11.1912 16.7553L10.8624 16.8648C10.3026 17.0514 9.69738 17.0514 9.13756 16.8648L8.80885 16.7553ZM5.90909 12.3636C4.95515 12.3636 4.18182 13.137 4.18182 14.0909C4.18182 14.3922 3.93761 14.6364 3.63636 14.6364C3.33512 14.6364 3.09091 14.3922 3.09091 14.0909C3.09091 12.5345 4.35265 11.2727 5.90909 11.2727C7.46553 11.2727 8.72727 12.5345 8.72727 14.0909C8.72727 14.3922 8.48307 14.6364 8.18182 14.6364C7.88057 14.6364 7.63636 14.3922 7.63636 14.0909C7.63636 13.137 6.86304 12.3636 5.90909 12.3636ZM12.3636 14.0909C12.3636 13.137 13.137 12.3636 14.0909 12.3636C15.0449 12.3636 15.8182 13.137 15.8182 14.0909C15.8182 14.3922 16.0624 14.6364 16.3636 14.6364C16.6649 14.6364 16.9091 14.3922 16.9091 14.0909C16.9091 12.5345 15.6474 11.2727 14.0909 11.2727C12.5345 11.2727 11.2727 12.5345 11.2727 14.0909C11.2727 14.3922 11.5169 14.6364 11.8182 14.6364C12.1194 14.6364 12.3636 14.3922 12.3636 14.0909Z" fill="black"/>
</svg>
