<svg width="14" height="20" viewBox="0 0 14 20" fill="none" xmlns="http://www.w3.org/2000/svg">
<path fill-rule="evenodd" clip-rule="evenodd" d="M6.99997 17.111C6.99997 17.111 3.57399 11.7527 2.40877 9.9283C1.86822 9.08208 1.55555 8.07875 1.55555 6.99997C1.55555 6.285 1.69637 5.57703 1.96998 4.91648C2.24359 4.25593 2.64462 3.65575 3.15018 3.15018C3.65575 2.64462 4.25593 2.24359 4.91648 1.96998C5.57703 1.69637 6.285 1.55555 6.99997 1.55555C7.71495 1.55555 8.42292 1.69637 9.08346 1.96998C9.74401 2.24359 10.3442 2.64462 10.8498 3.15018C11.3553 3.65575 11.7564 4.25593 12.03 4.91648C12.3036 5.57703 12.4444 6.285 12.4444 6.99997C12.444 8.0381 12.146 9.05436 11.5857 9.9283L6.99997 17.111ZM12.8952 10.7679L7.00109 20L5.6895 17.9491L4.0821 15.4353C3.16374 13.9988 2.01581 12.2029 1.09785 10.7657M12.8952 10.7679L12.8962 10.7664C13.6164 9.64241 13.9995 8.33551 13.9999 7.0005C13.9999 6.08125 13.8189 5.17048 13.4671 4.3212C13.1153 3.47192 12.5997 2.70025 11.9497 2.05024C11.2997 1.40024 10.528 0.884623 9.67875 0.532841C8.82947 0.18106 7.91922 0 6.99997 0C6.08072 0 5.17048 0.18106 4.3212 0.532841C3.47192 0.884623 2.70025 1.40024 2.05024 2.05024C1.40024 2.70025 0.884623 3.47192 0.532841 4.3212C0.181059 5.17048 0 6.08072 0 6.99997C0 8.38416 0.402326 9.67683 1.09785 10.7657M6.45 7.54994C6.59586 7.6958 6.79369 7.77775 6.99997 7.77775C7.20625 7.77775 7.40408 7.6958 7.54994 7.54994C7.6958 7.40408 7.77775 7.20625 7.77775 6.99997C7.77775 6.79369 7.6958 6.59586 7.54994 6.45C7.40408 6.30414 7.20625 6.2222 6.99997 6.2222C6.79369 6.2222 6.59586 6.30414 6.45 6.45C6.30414 6.59586 6.2222 6.79369 6.2222 6.99997C6.2222 7.20625 6.30414 7.40408 6.45 7.54994ZM6.99997 9.3333C6.38114 9.3333 5.78765 9.08747 5.35006 8.64988C4.91248 8.2123 4.66665 7.61881 4.66665 6.99997C4.66665 6.38114 4.91248 5.78765 5.35006 5.35006C5.78765 4.91248 6.38114 4.66665 6.99997 4.66665C7.61881 4.66665 8.2123 4.91248 8.64988 5.35006C9.08747 5.78765 9.3333 6.38114 9.3333 6.99997C9.3333 7.61881 9.08747 8.2123 8.64988 8.64988C8.2123 9.08747 7.61881 9.3333 6.99997 9.3333Z" fill="black"/>
</svg>
