<svg width="19" height="24" viewBox="0 0 19 24" fill="none" xmlns="http://www.w3.org/2000/svg">
<path fill-rule="evenodd" clip-rule="evenodd" d="M10.8105 18.429C15.2703 17.161 18.3079 13.6974 18.3079 9.07697C18.3079 4.0639 14.244 0 9.2309 0C4.21783 0 0.153931 4.0639 0.153931 9.07697C0.153931 13.831 3.87608 19.1544 8.96452 22.8581C9.28982 23.0949 9.72669 23.1021 10.0661 22.8861L10.3287 22.719C10.7301 22.4635 10.896 21.9605 10.7251 21.5164L10.0738 19.8228C9.84975 19.2403 10.2102 18.5996 10.8105 18.429ZM9.36848 12.1026C11.1155 12.1026 12.5317 10.6864 12.5317 8.93943C12.5317 7.19245 11.1155 5.77624 9.36848 5.77624C7.6215 5.77624 6.20529 7.19245 6.20529 8.93943C6.20529 10.6864 7.6215 12.1026 9.36848 12.1026Z" fill="black"/>
</svg>
