<svg width="15" height="17" viewBox="0 0 15 17" fill="none" xmlns="http://www.w3.org/2000/svg">
<path fill-rule="evenodd" clip-rule="evenodd" d="M7.5 2.21051C5.90152 2.21051 4.6 3.51157 4.6 5.12355C4.6 6.73553 5.90152 8.0366 7.5 8.0366C9.09848 8.0366 10.4 6.73553 10.4 5.12355C10.4 3.51157 9.09848 2.21051 7.5 2.21051ZM2.6 5.12355C2.6 2.4133 4.79066 0.21051 7.5 0.21051C10.2093 0.21051 12.4 2.4133 12.4 5.12355C12.4 7.8338 10.2093 10.0366 7.5 10.0366C4.79066 10.0366 2.6 7.8338 2.6 5.12355ZM1.37091e-06 16.3478C7.92742e-06 13.2774 2.48168 10.7826 5.55001 10.7826L9.45001 10.7826C12.5183 10.7826 15 13.2774 15 16.3478V17H13V16.3478C13 14.3757 11.4075 12.7826 9.45001 12.7826L5.55001 12.7826C3.59254 12.7826 2.00001 14.3756 2 16.3478L2 17L0 17L1.37091e-06 16.3478Z" fill="black"/>
</svg>
