<svg width="120" height="120" viewBox="0 0 120 120" fill="none" xmlns="http://www.w3.org/2000/svg">
<path fill-rule="evenodd" clip-rule="evenodd" d="M60 117C91.4802 117 117 91.4802 117 60C117 28.5198 91.4802 3 60 3C28.5198 3 3 28.5198 3 60C3 91.4802 28.5198 117 60 117ZM60 120C93.1371 120 120 93.1371 120 60C120 26.8629 93.1371 0 60 0C26.8629 0 0 26.8629 0 60C0 93.1371 26.8629 120 60 120Z" fill="#14EB9C"/>
<path fill-rule="evenodd" clip-rule="evenodd" d="M52.3876 75.5937L77.284 41.1218L79.716 42.8782L52.6124 80.4063L40.8711 66.9878L43.1289 65.0122L52.3876 75.5937Z" fill="#14EB9C"/>
</svg>
