<svg width="20" height="20" viewBox="0 0 20 20" fill="none" xmlns="http://www.w3.org/2000/svg">
<path fill-rule="evenodd" clip-rule="evenodd" d="M11.5 0C12.0523 0 12.5 0.447715 12.5 1V1.67443C12.5 2.1064 12.7801 2.48378 13.1765 2.65545C13.7415 2.90013 14.2726 3.20808 14.7611 3.57038C15.1076 3.82738 15.5738 3.88078 15.9474 3.66508L16.538 3.3241C17.0163 3.04795 17.6279 3.21183 17.904 3.69012L19.4166 6.30989C19.6927 6.78818 19.5288 7.39977 19.0505 7.67591L18.4604 8.01662C18.0872 8.23207 17.9003 8.66185 17.9488 9.09002C17.9826 9.38867 18 9.69231 18 10C18 10.3052 17.9829 10.6065 17.9496 10.9028C17.9016 11.3307 18.0885 11.7599 18.4614 11.9752L19.0543 12.3175C19.5326 12.5937 19.6964 13.2053 19.4203 13.6836L17.9002 16.3164C17.6241 16.7947 17.0125 16.9586 16.5342 16.6824L15.9408 16.3398C15.5675 16.1243 15.1017 16.1774 14.7553 16.4339C14.2684 16.7944 13.7392 17.1008 13.1765 17.3446C12.7801 17.5162 12.5 17.8936 12.5 18.3256V19C12.5 19.5523 12.0523 20 11.5 20H8.49999C7.9477 20 7.49999 19.5523 7.49999 19V18.3256C7.49999 17.8936 7.21988 17.5162 6.82348 17.3446C6.25854 17.0999 5.72738 16.7919 5.23893 16.4297C4.89244 16.1727 4.42622 16.1193 4.05262 16.335L3.46208 16.6759C2.98378 16.9521 2.37219 16.7882 2.09605 16.3099L0.583531 13.6901C0.307389 13.2118 0.471264 12.6002 0.949557 12.3241L1.53957 11.9835C1.91275 11.768 2.09966 11.3382 2.05118 10.91C2.01736 10.6114 1.99999 10.3077 1.99999 10C1.99999 9.69475 2.01708 9.39349 2.05037 9.09713C2.09843 8.66928 1.91149 8.24002 1.53862 8.02474L0.945724 7.68243C0.467431 7.40629 0.303556 6.7947 0.579698 6.31641L2.09978 3.68355C2.37592 3.20526 2.98751 3.04139 3.4658 3.31753L4.05921 3.66013C4.4325 3.87565 4.89828 3.82253 5.24471 3.56606C5.73157 3.20564 6.26077 2.89915 6.82348 2.65545C7.21988 2.48378 7.49999 2.1064 7.49999 1.67443V1C7.49999 0.447715 7.9477 0 8.49999 0H11.5ZM10 14C12.2091 14 14 12.2091 14 10C14 7.79086 12.2091 6 10 6C7.79086 6 6 7.79086 6 10C6 12.2091 7.79086 14 10 14Z" fill="black"/>
</svg>
