<svg width="20" height="20" viewBox="0 0 20 20" fill="none" xmlns="http://www.w3.org/2000/svg">
<path fill-rule="evenodd" clip-rule="evenodd" d="M9 2.06189C5.38128 2.51314 2.51314 5.38128 2.06189 9H0V11H2.06189C2.51314 14.6187 5.38128 17.4869 9 17.9381V20H11V17.9381C14.6187 17.4869 17.4869 14.6187 17.9381 11H20V9H17.9381C17.4869 5.38128 14.6187 2.51314 11 2.06189V0H9V2.06189ZM10 16C13.3137 16 16 13.3137 16 10C16 6.68629 13.3137 4 10 4C6.68629 4 4 6.68629 4 10C4 13.3137 6.68629 16 10 16Z" fill="black"/>
<path d="M12 10C12 11.1046 11.1046 12 10 12C8.89543 12 8 11.1046 8 10C8 8.89543 8.89543 8 10 8C11.1046 8 12 8.89543 12 10Z" fill="black"/>
</svg>
