<svg width="20" height="20" viewBox="0 0 20 20" fill="none" xmlns="http://www.w3.org/2000/svg">
<path d="M11.7289 2H3C1.34315 2 0 3.34315 0 5V17C0 18.6569 1.34315 20 3 20H15C16.6569 20 18 18.6569 18 17V8.2711C17.5265 8.41982 17.0226 8.5 16.5 8.5C16.3313 8.5 16.1645 8.49164 16 8.47531V17C16 17.5523 15.5523 18 15 18H3C2.44772 18 2 17.5523 2 17V5C2 4.44772 2.44772 4 3 4H11.5247C11.5084 3.83555 11.5 3.66875 11.5 3.5C11.5 2.9774 11.5802 2.47352 11.7289 2Z" fill="black"/>
<path d="M20 3.5C20 5.433 18.433 7 16.5 7C14.567 7 13 5.433 13 3.5C13 1.567 14.567 0 16.5 0C18.433 0 20 1.567 20 3.5Z" fill="black"/>
</svg>
