<svg width="18" height="18" viewBox="0 0 18 18" fill="none" xmlns="http://www.w3.org/2000/svg">
<path fill-rule="evenodd" clip-rule="evenodd" d="M3.31011 3.31011C1.55694 5.06328 1.55694 7.90574 3.31011 9.65891C5.06328 11.4121 7.90574 11.4121 9.65891 9.65891C11.4121 7.90574 11.4121 5.06328 9.65891 3.31011C7.90574 1.55694 5.06328 1.55694 3.31011 3.31011ZM1.89927 11.0698C-0.63309 8.53739 -0.63309 4.43163 1.89927 1.89927C4.43163 -0.63309 8.53739 -0.633089 11.0698 1.89927C13.3622 4.19174 13.5794 7.77364 11.7212 10.3104L11.7752 11.0698L12.8063 11.3955L17.9123 16.5015C18.0292 16.6184 18.0292 16.8079 17.9123 16.9248L16.9248 17.9123C16.8079 18.0292 16.6184 18.0292 16.5015 17.9123L11.3955 12.8063L11.0698 11.7752L10.3104 11.7212C7.77364 13.5794 4.19174 13.3622 1.89927 11.0698Z" fill="black"/>
</svg>
